<svg xmlns="http://www.w3.org/2000/svg" xmlns:xlink="http://www.w3.org/1999/xlink" width="508pt" height="221pt" viewBox="0.00 0.00 508.00 221.00">
<g id="graph0" class="graph" transform="scale(1 1) rotate(0) translate(4 216.8)">
<title>G</title>
<polygon fill="white" stroke="none" points="-4,4 -4,-216.8 504,-216.8 504,4 -4,4"/>
<g id="clust1" class="cluster">
<title>cluster_0</title>
<polygon fill="none" stroke="white" points="8,-116 8,-204 492,-204 492,-116 8,-116"/>
</g>
<g id="clust3" class="cluster">
<title>cluster_1</title>
<polygon fill="none" stroke="white" points="170,-8 170,-96 492,-96 492,-8 170,-8"/>
</g>
<!-- ft_uikit -->
<g id="node1" class="node">
<title>ft_uikit</title>
<polygon fill="aliceblue" stroke="black" points="160,-196 16,-196 16,-124 160,-124 160,-196"/>
<text xml:space="preserve" text-anchor="middle" x="88" y="-155.8" font-family="Arial" font-size="14.00">UI Kit Frontend</text>
<text xml:space="preserve" text-anchor="middle" x="12.11" y="-200.2" font-family="Arial" font-size="14.00">1</text>
</g>
<!-- ft_resolver -->
<g id="node2" class="node">
<title>ft_resolver</title>
<polygon fill="aliceblue" stroke="black" points="322,-196 178,-196 178,-124 322,-124 322,-196"/>
<text xml:space="preserve" text-anchor="middle" x="250" y="-164.2" font-family="Arial" font-size="14.00">Forge Resolver</text>
<text xml:space="preserve" text-anchor="middle" x="250" y="-147.4" font-family="Arial" font-size="14.00"> (invokeremote())</text>
<text xml:space="preserve" text-anchor="middle" x="174.11" y="-200.2" font-family="Arial" font-size="14.00">5</text>
</g>
<!-- ft_uikit&#45;&gt;ft_resolver -->
<g id="edge1" class="edge">
<title>ft_uikit-&gt;ft_resolver</title>
<path fill="none" stroke="black" d="M160.46,-160C162.42,-160 164.38,-160 166.35,-160"/>
<polygon fill="black" stroke="black" points="166.08,-163.5 176.08,-160 166.08,-156.5 166.08,-163.5"/>
</g>
<!-- ft_remote -->
<g id="node3" class="node">
<title>ft_remote</title>
<polygon fill="yellow" stroke="black" points="484,-196 340,-196 340,-124 484,-124 484,-196"/>
<text xml:space="preserve" text-anchor="middle" x="412" y="-164.2" font-family="Arial" font-size="14.00">Forge Remote</text>
<text xml:space="preserve" text-anchor="middle" x="412" y="-147.4" font-family="Arial" font-size="14.00">Backend </text>
<text xml:space="preserve" text-anchor="middle" x="336.11" y="-200.2" font-family="Arial" font-size="14.00">2</text>
</g>
<!-- ft_resolver&#45;&gt;ft_remote -->
<g id="edge2" class="edge">
<title>ft_resolver-&gt;ft_remote</title>
<path fill="none" stroke="black" d="M322.46,-160C324.42,-160 326.38,-160 328.35,-160"/>
<polygon fill="black" stroke="black" points="328.08,-163.5 338.08,-160 328.08,-156.5 328.08,-163.5"/>
</g>
<!-- ft_storage -->
<g id="node4" class="node">
<title>ft_storage</title>
<polygon fill="aliceblue" stroke="black" points="322,-88 178,-88 178,-16 322,-16 322,-88"/>
<text xml:space="preserve" text-anchor="middle" x="250" y="-56.2" font-family="Arial" font-size="14.00">Forge Storage</text>
<text xml:space="preserve" text-anchor="middle" x="250" y="-39.4" font-family="Arial" font-size="14.00">(KVS)</text>
<text xml:space="preserve" text-anchor="middle" x="174.11" y="-92.2" font-family="Arial" font-size="14.00">3</text>
</g>
<!-- ft_resolver&#45;&gt;ft_storage -->
<g id="edge4" class="edge">
<title>ft_resolver:s-&gt;ft_storage:n</title>
<path fill="none" stroke="black" stroke-dasharray="5,2" d="M250,-111.95C250,-107.84 250,-104.45 250,-100.39"/>
<polygon fill="black" stroke="black" points="246.5,-111.49 250,-121.49 253.5,-111.49 246.5,-111.49"/>
<polygon fill="black" stroke="black" points="253.5,-100.51 250,-90.51 246.5,-100.51 253.5,-100.51"/>
</g>
<!-- ft_resolver&#45;&gt;ft_storage -->
<!-- ft_graphQL -->
<g id="node5" class="node">
<title>ft_graphQL</title>
<polygon fill="yellow" stroke="black" points="484,-88 340,-88 340,-16 484,-16 484,-88"/>
<text xml:space="preserve" text-anchor="middle" x="412" y="-56.2" font-family="Arial" font-size="14.00">GraphQL</text>
<text xml:space="preserve" text-anchor="middle" x="412" y="-39.4" font-family="Arial" font-size="14.00"> (with OAuth)</text>
<text xml:space="preserve" text-anchor="middle" x="336.11" y="-92.2" font-family="Arial" font-size="14.00">4</text>
</g>
<!-- ft_remote&#45;&gt;ft_graphQL -->
<g id="edge5" class="edge">
<title>ft_remote-&gt;ft_graphQL</title>
<path fill="none" stroke="black" stroke-dasharray="5,2" d="M405.6,-123.7C405.28,-115.93 405.18,-107.57 405.3,-99.43"/>
<polygon fill="black" stroke="black" points="408.79,-99.75 405.56,-89.66 401.79,-99.56 408.79,-99.75"/>
</g>
<!-- ft_remote&#45;&gt;ft_graphQL -->
<!-- ft_graphQL&#45;&gt;ft_storage -->
<g id="edge3" class="edge">
<title>ft_graphQL:w-&gt;ft_storage:e</title>
<path fill="none" stroke="black" d="M340,-52C337.25,-52 335.21,-52 333.39,-52"/>
<polygon fill="black" stroke="black" points="333.51,-48.5 323.51,-52 333.51,-55.5 333.51,-48.5"/>
</g>
</g>
</svg>